<?xml version="1.0" encoding="UTF-8"?>
<svg xmlns="http://www.w3.org/2000/svg" version="1.1" width="900" height="900" viewBox="0 0 900 900"><rect x="0" y="0" width="900" height="900" fill="#99ba29" fill-opacity="0.66"/><g transform="scale(4.225)"><g transform="translate(94,94)"><g><g transform="translate(3.5,3.5)"><path fill-rule="evenodd" d="M-3.5 -3.5L3.5 -3.5L3.5 3.5L-3.5 3.5ZM-2.5 -2.5L-2.5 2.5L2.5 2.5L2.5 -2.5Z" fill="#baa9ba"/><path fill-rule="evenodd" d="M-1.5 -1.5L1.5 -1.5L1.5 1.5L-1.5 1.5Z" fill="#26fc5c"/></g></g><g><g transform="translate(21.5,3.5)"><g transform="rotate(90)"><path fill-rule="evenodd" d="M-3.5 -3.5L3.5 -3.5L3.5 3.5L-3.5 3.5ZM-2.5 -2.5L-2.5 2.5L2.5 2.5L2.5 -2.5Z" fill="#443691"/><path fill-rule="evenodd" d="M-1.5 -1.5L1.5 -1.5L1.5 1.5L-1.5 1.5Z" fill="#7e87a3"/></g></g></g><g><g transform="translate(3.5,21.5)"><g transform="rotate(-90)"><path fill-rule="evenodd" d="M-3.5 -3.5L3.5 -3.5L3.5 3.5L-3.5 3.5ZM-2.5 -2.5L-2.5 2.5L2.5 2.5L2.5 -2.5Z" fill="#cf148f"/><path fill-rule="evenodd" d="M-1.5 -1.5L1.5 -1.5L1.5 1.5L-1.5 1.5Z" fill="#366896"/></g></g></g><defs><linearGradient gradientUnits="userSpaceOnUse" x1="0" y1="0" x2="0" y2="25" id="g1"><stop offset="0%" stop-color="#c1a41f"/><stop offset="100%" stop-color="#ad8f02"/></linearGradient></defs><path fill-rule="evenodd" d="M9 0L9 1L11 1L11 2L10 2L10 3L9 3L9 2L8 2L8 8L9 8L9 9L10 9L10 10L11 10L11 11L10 11L10 12L8 12L8 13L7 13L7 12L6 12L6 11L7 11L7 10L8 10L8 9L7 9L7 8L2 8L2 9L4 9L4 11L3 11L3 12L2 12L2 11L1 11L1 8L0 8L0 11L1 11L1 12L2 12L2 13L3 13L3 12L4 12L4 14L2 14L2 15L4 15L4 16L2 16L2 17L4 17L4 16L5 16L5 17L7 17L7 16L8 16L8 18L9 18L9 19L8 19L8 23L9 23L9 24L8 24L8 25L12 25L12 23L13 23L13 22L10 22L10 21L11 21L11 20L9 20L9 19L11 19L11 18L10 18L10 16L9 16L9 14L11 14L11 17L12 17L12 18L13 18L13 19L12 19L12 21L13 21L13 20L14 20L14 21L15 21L15 23L14 23L14 24L15 24L15 25L16 25L16 24L17 24L17 25L18 25L18 24L19 24L19 25L20 25L20 24L21 24L21 23L23 23L23 25L25 25L25 24L24 24L24 23L25 23L25 21L24 21L24 20L25 20L25 14L24 14L24 13L25 13L25 10L24 10L24 9L23 9L23 8L18 8L18 9L17 9L17 6L16 6L16 5L13 5L13 6L12 6L12 5L10 5L10 8L9 8L9 4L11 4L11 3L13 3L13 4L14 4L14 3L15 3L15 4L16 4L16 3L17 3L17 2L16 2L16 3L15 3L15 0L14 0L14 1L13 1L13 0L12 0L12 1L11 1L11 0ZM16 0L16 1L17 1L17 0ZM12 1L12 2L13 2L13 3L14 3L14 2L13 2L13 1ZM11 6L11 7L12 7L12 6ZM13 6L13 8L12 8L12 11L13 11L13 10L14 10L14 6ZM15 6L15 8L16 8L16 6ZM10 8L10 9L11 9L11 8ZM6 9L6 10L7 10L7 9ZM16 9L16 11L14 11L14 12L13 12L13 13L11 13L11 12L10 12L10 13L11 13L11 14L13 14L13 15L12 15L12 17L14 17L14 18L15 18L15 15L17 15L17 14L18 14L18 13L17 13L17 12L16 12L16 11L17 11L17 9ZM19 9L19 11L18 11L18 12L19 12L19 11L20 11L20 14L23 14L23 15L24 15L24 14L23 14L23 13L22 13L22 11L20 11L20 10L23 10L23 12L24 12L24 10L23 10L23 9ZM4 11L4 12L5 12L5 11ZM14 12L14 14L17 14L17 13L16 13L16 12ZM0 13L0 17L1 17L1 13ZM6 13L6 14L7 14L7 13ZM6 15L6 16L7 16L7 15ZM18 15L18 16L19 16L19 15ZM20 15L20 16L22 16L22 15ZM23 16L23 17L21 17L21 19L22 19L22 20L21 20L21 21L20 21L20 22L19 22L19 23L21 23L21 22L23 22L23 23L24 23L24 22L23 22L23 21L22 21L22 20L23 20L23 19L22 19L22 18L24 18L24 16ZM17 17L17 20L20 20L20 17ZM18 18L18 19L19 19L19 18ZM14 19L14 20L15 20L15 19ZM9 22L9 23L10 23L10 24L11 24L11 23L10 23L10 22ZM16 22L16 23L17 23L17 22Z" fill="url(#g1)"/></g></g></svg>
